# xmcd
#
# Track frame offsets: 
#        150
#        15103
#        32581
#        49717
#        61364
#        72307
#        87838
#        102694
#        120675
#        144948
#        162393
#
# Disc length: 2391 seconds
#
# Revision: 0
# Processed by: cddbd v1.5.2PL0 Copyright (c) Steve Scherf et al.
# Submitted via: ExactAudioCopy v0.99pb4
#
DISCID=8c09550b
DTITLE=The Badrock Blues Band - Playin' The Blues
DYEAR=1999
DGENRE=Blues
TTITLE0=Automatic
TTITLE1=Let's Work Together
TTITLE2=The Thrill Is Gone
TTITLE3=Moving On
TTITLE4=Whammer Jammer
TTITLE5=Brown Sugar
TTITLE6=Confidence Man
TTITLE7=Hoochie Coochie Man
TTITLE8=The Blues Is Alright
TTITLE9=I'm Ready
TTITLE10=Dust My Broom
EXTD=
EXTT0=
EXTT1=
EXTT2=
EXTT3=
EXTT4=
EXTT5=
EXTT6=
EXTT7=
EXTT8=
EXTT9=
EXTT10=
PLAYORDER=
